<?xml version="1.0" encoding="UTF-8" standalone="no"?>
<!DOCTYPE svg PUBLIC "-//W3C//DTD SVG 1.0//EN" "http://www.w3.org/TR/2001/PR-SVG-20010719/DTD/svg10.dtd">
<svg width="21cm" height="7cm" viewBox="319 259 402 123" xmlns="http://www.w3.org/2000/svg" xmlns:xlink="http://www.w3.org/1999/xlink">
  <g>
    <rect style="fill: #ffffff" x="320" y="300" width="140" height="40"/>
    <rect style="fill: none; fill-opacity:0; stroke-width: 2; stroke: #000000" x="320" y="300" width="140" height="40"/>
    <text font-size="12.7998" style="fill: #000000;text-anchor:middle;font-family:sans-serif;font-style:normal;font-weight:normal" x="390" y="323.9">
      <tspan x="390" y="323.9">Desktop</tspan>
    </text>
  </g>
  <g>
    <rect style="fill: #ffffff" x="320" y="340" width="140" height="40"/>
    <rect style="fill: none; fill-opacity:0; stroke-width: 2; stroke: #000000" x="320" y="340" width="140" height="40"/>
    <text font-size="12.7998" style="fill: #000000;text-anchor:middle;font-family:sans-serif;font-style:normal;font-weight:normal" x="390" y="363.9">
      <tspan x="390" y="363.9">USB</tspan>
    </text>
  </g>
  <g>
    <rect style="fill: #ffffff" x="580" y="340" width="140" height="40"/>
    <rect style="fill: none; fill-opacity:0; stroke-width: 2; stroke: #000000" x="580" y="340" width="140" height="40"/>
    <text font-size="12.7998" style="fill: #000000;text-anchor:middle;font-family:sans-serif;font-style:normal;font-weight:normal" x="650" y="363.9">
      <tspan x="650" y="363.9">FTDI FT2232HQ</tspan>
    </text>
  </g>
  <g>
    <rect style="fill: #ffffff" x="580" y="300" width="140" height="40"/>
    <rect style="fill: none; fill-opacity:0; stroke-width: 2; stroke: #000000" x="580" y="300" width="140" height="40"/>
    <text font-size="12.7998" style="fill: #000000;text-anchor:middle;font-family:sans-serif;font-style:normal;font-weight:normal" x="650" y="323.9">
      <tspan x="650" y="323.9">UART</tspan>
    </text>
  </g>
  <g>
    <rect style="fill: #ffffff" x="580" y="260" width="140" height="40"/>
    <rect style="fill: none; fill-opacity:0; stroke-width: 2; stroke: #000000" x="580" y="260" width="140" height="40"/>
    <text font-size="12.7998" style="fill: #000000;text-anchor:middle;font-family:sans-serif;font-style:normal;font-weight:normal" x="650" y="283.9">
      <tspan x="650" y="283.9">PYNQ-Z1</tspan>
    </text>
  </g>
  <g>
    <line style="fill: none; fill-opacity:0; stroke-width: 2; stroke: #00ff00" x1="469.736" y1="360" x2="570.264" y2="360"/>
    <polygon style="fill: #00ff00" points="462.236,360 472.236,355 469.736,360 472.236,365 "/>
    <polygon style="fill: none; fill-opacity:0; stroke-width: 2; stroke: #00ff00" points="462.236,360 472.236,355 469.736,360 472.236,365 "/>
    <polygon style="fill: #00ff00" points="577.764,360 567.764,365 570.264,360 567.764,355 "/>
    <polygon style="fill: none; fill-opacity:0; stroke-width: 2; stroke: #00ff00" points="577.764,360 567.764,365 570.264,360 567.764,355 "/>
  </g>
</svg>
