<?xml version="1.0" encoding="UTF-8" standalone="no"?>
<!DOCTYPE svg PUBLIC "-//W3C//DTD SVG 1.0//EN" "http://www.w3.org/TR/2001/PR-SVG-20010719/DTD/svg10.dtd">
<svg width="20cm" height="12cm" viewBox="319 379 382 223" xmlns="http://www.w3.org/2000/svg" xmlns:xlink="http://www.w3.org/1999/xlink">
  <g>
    <rect style="fill: #ffffff" x="320" y="500" width="180" height="40"/>
    <rect style="fill: none; fill-opacity:0; stroke-width: 2; stroke: #000000" x="320" y="500" width="180" height="40"/>
    <text font-size="12.8" style="fill: #000000;text-anchor:middle;font-family:sans-serif;font-style:normal;font-weight:normal" x="410" y="523.9">
      <tspan x="410" y="523.9">Hardware</tspan>
    </text>
  </g>
  <g>
    <rect style="fill: #ffffff" x="320" y="460" width="180" height="40"/>
    <rect style="fill: none; fill-opacity:0; stroke-width: 2; stroke: #000000" x="320" y="460" width="180" height="40"/>
    <text font-size="12.8" style="fill: #000000;text-anchor:middle;font-family:sans-serif;font-style:normal;font-weight:normal" x="410" y="483.9">
      <tspan x="410" y="483.9">Drivers</tspan>
    </text>
  </g>
  <g>
    <rect style="fill: #ffffff" x="320" y="420" width="180" height="40"/>
    <rect style="fill: none; fill-opacity:0; stroke-width: 2; stroke: #000000" x="320" y="420" width="180" height="40"/>
    <text font-size="12.8" style="fill: #000000;text-anchor:middle;font-family:sans-serif;font-style:normal;font-weight:normal" x="410" y="443.9">
      <tspan x="410" y="443.9">Operating system</tspan>
    </text>
  </g>
  <g>
    <rect style="fill: #ffffff" x="320" y="380" width="180" height="40"/>
    <rect style="fill: none; fill-opacity:0; stroke-width: 2; stroke: #000000" x="320" y="380" width="180" height="40"/>
    <text font-size="12.8" style="fill: #000000;text-anchor:middle;font-family:sans-serif;font-style:normal;font-weight:normal" x="410" y="403.9">
      <tspan x="410" y="403.9">Application</tspan>
    </text>
  </g>
  <g>
    <rect style="fill: #ffffff" x="320" y="560" width="180" height="40"/>
    <rect style="fill: none; fill-opacity:0; stroke-width: 2; stroke: #000000" x="320" y="560" width="180" height="40"/>
    <text font-size="12.8" style="fill: #000000;text-anchor:middle;font-family:sans-serif;font-style:normal;font-weight:normal" x="410" y="583.9">
      <tspan x="410" y="583.9">Hosted application</tspan>
    </text>
  </g>
  <g>
    <rect style="fill: #ffffff" x="520" y="560" width="180" height="40"/>
    <rect style="fill: none; fill-opacity:0; stroke-width: 2; stroke: #000000" x="520" y="560" width="180" height="40"/>
    <text font-size="12.8" style="fill: #000000;text-anchor:middle;font-family:sans-serif;font-style:normal;font-weight:normal" x="610" y="583.9">
      <tspan x="610" y="583.9">Bare metal application</tspan>
    </text>
  </g>
  <g>
    <rect style="fill: #ffffff" x="520" y="500" width="180" height="40"/>
    <rect style="fill: none; fill-opacity:0; stroke-width: 2; stroke: #000000" x="520" y="500" width="180" height="40"/>
    <text font-size="12.8" style="fill: #000000;text-anchor:middle;font-family:sans-serif;font-style:normal;font-weight:normal" x="610" y="523.9">
      <tspan x="610" y="523.9">Hardware</tspan>
    </text>
  </g>
  <g>
    <rect style="fill: #ffffff" x="520" y="460" width="180" height="40"/>
    <rect style="fill: none; fill-opacity:0; stroke-width: 2; stroke: #000000" x="520" y="460" width="180" height="40"/>
    <text font-size="12.8" style="fill: #000000;text-anchor:middle;font-family:sans-serif;font-style:normal;font-weight:normal" x="610" y="483.9">
      <tspan x="610" y="483.9">Drivers</tspan>
    </text>
  </g>
  <g>
    <rect style="fill: #ffffff" x="520" y="420" width="180" height="40"/>
    <rect style="fill: none; fill-opacity:0; stroke-width: 2; stroke: #000000" x="520" y="420" width="180" height="40"/>
    <text font-size="12.8" style="fill: #000000;text-anchor:middle;font-family:sans-serif;font-style:normal;font-weight:normal" x="610" y="443.9">
      <tspan x="610" y="443.9">Application</tspan>
    </text>
  </g>
</svg>
